<svg width="234" height="63" viewBox="0 0 234 63" fill="none" xmlns="http://www.w3.org/2000/svg">
<path fill-rule="evenodd" clip-rule="evenodd" d="M28.8944 10H48V29.1056C38.3136 27.3232 30.6768 19.6864 28.8944 10ZM25.533 7H28.5371H48H51V10L51 29.4629V32.467L51 55V58H48H3H0V55V10V7H3H25.533ZM48 32.1506V55H3V10H25.8494C27.6949 21.3463 36.6536 30.3051 48 32.1506Z" fill="black"/>
<path d="M87.1546 16.0917C87.1546 19.3088 86.3481 21.8096 84.735 23.5939C83.1309 25.3782 80.8555 26.2704 77.9086 26.2704C74.9258 26.2704 72.6323 25.3872 71.0282 23.6209C69.4332 21.8456 68.6356 19.3268 68.6356 16.0646C68.6356 12.8024 69.4377 10.2971 71.0417 8.54888C72.6548 6.80061 74.9528 5.92648 77.9357 5.92648C80.8735 5.92648 83.1444 6.81413 84.7485 8.58943C86.3526 10.3647 87.1546 12.8655 87.1546 16.0917ZM72.0691 16.0917C72.0691 18.5248 72.5602 20.3722 73.5425 21.6338C74.5248 22.8865 75.9801 23.5128 77.9086 23.5128C79.8281 23.5128 81.2745 22.891 82.2478 21.6474C83.23 20.4037 83.7212 18.5518 83.7212 16.0917C83.7212 13.6675 83.2345 11.8291 82.2613 10.5765C81.297 9.32388 79.8552 8.69757 77.9357 8.69757C75.9982 8.69757 74.5338 9.32388 73.5425 10.5765C72.5602 11.8291 72.0691 13.6675 72.0691 16.0917ZM104.214 26H101.024V16.8081C101.024 15.6546 100.789 14.794 100.321 14.2262C99.8611 13.6585 99.1267 13.3746 98.1173 13.3746C96.7746 13.3746 95.7923 13.7711 95.1705 14.5642C94.5487 15.3572 94.2378 16.6864 94.2378 18.5518V26H91.0612V11.0496H93.5484L93.9945 13.0097H94.1567C94.6073 12.2977 95.2471 11.748 96.0762 11.3605C96.9053 10.973 97.8245 10.7793 98.8338 10.7793C102.42 10.7793 104.214 12.6041 104.214 16.2539V26ZM115.163 26.2704C112.838 26.2704 111.018 25.5945 109.702 24.2427C108.395 22.882 107.742 21.012 107.742 18.6329C107.742 16.1908 108.35 14.2713 109.567 12.8745C110.783 11.4777 112.455 10.7793 114.582 10.7793C116.555 10.7793 118.114 11.3785 119.259 12.5771C120.403 13.7757 120.975 15.4248 120.975 17.5245V19.2412H111.013C111.058 20.6921 111.45 21.8096 112.189 22.5936C112.928 23.3686 113.969 23.7561 115.312 23.7561C116.195 23.7561 117.015 23.675 117.772 23.5128C118.538 23.3416 119.358 23.0622 120.232 22.6747V25.2565C119.457 25.626 118.673 25.8874 117.88 26.0406C117.087 26.1938 116.181 26.2704 115.163 26.2704ZM114.582 13.1854C113.572 13.1854 112.761 13.5053 112.149 14.1451C111.545 14.785 111.184 15.7177 111.067 16.9433H117.853C117.835 15.7087 117.538 14.7759 116.961 14.1451C116.384 13.5053 115.591 13.1854 114.582 13.1854ZM78.152 56L72.4205 39.4951H72.3124C72.4656 41.9463 72.5422 44.2443 72.5422 46.389V56H69.6089V36.2374H74.1643L79.6524 51.9583H79.7335L85.3838 36.2374H89.9528V56H86.8437V46.2268C86.8437 45.2446 86.8663 43.9649 86.9113 42.3879C86.9654 40.8108 87.0104 39.8556 87.0465 39.5221H86.9383L81.0042 56H78.152ZM108.08 48.4978C108.08 50.9399 107.453 52.8459 106.201 54.2157C104.948 55.5855 103.204 56.2704 100.97 56.2704C99.5727 56.2704 98.3381 55.9549 97.2657 55.3241C96.1933 54.6933 95.3688 53.7876 94.792 52.6071C94.2153 51.4266 93.9269 50.0568 93.9269 48.4978C93.9269 46.0736 94.5487 44.1812 95.7923 42.8204C97.0359 41.4596 98.7887 40.7793 101.051 40.7793C103.213 40.7793 104.926 41.4777 106.187 42.8745C107.449 44.2623 108.08 46.1367 108.08 48.4978ZM97.1982 48.4978C97.1982 51.9492 98.4733 53.675 101.024 53.675C103.547 53.675 104.809 51.9492 104.809 48.4978C104.809 45.0823 103.538 43.3746 100.997 43.3746C99.6628 43.3746 98.6941 43.8162 98.0903 44.6993C97.4955 45.5825 97.1982 46.8486 97.1982 48.4978ZM124.896 56H121.705V46.8081C121.705 45.6546 121.471 44.794 121.003 44.2262C120.543 43.6585 119.808 43.3746 118.799 43.3746C117.456 43.3746 116.474 43.7711 115.852 44.5642C115.231 45.3572 114.92 46.6864 114.92 48.5518V56H111.743V41.0496H114.23L114.676 43.0097H114.839C115.289 42.2977 115.929 41.748 116.758 41.3605C117.587 40.973 118.506 40.7793 119.516 40.7793C123.102 40.7793 124.896 42.6041 124.896 46.2539V56ZM132.492 56H129.316V41.0496H132.492V56ZM129.127 37.089C129.127 36.5212 129.28 36.0842 129.586 35.7778C129.902 35.4714 130.348 35.3182 130.924 35.3182C131.483 35.3182 131.916 35.4714 132.222 35.7778C132.537 36.0842 132.695 36.5212 132.695 37.089C132.695 37.6297 132.537 38.0577 132.222 38.3731C131.916 38.6795 131.483 38.8327 130.924 38.8327C130.348 38.8327 129.902 38.6795 129.586 38.3731C129.28 38.0577 129.127 37.6297 129.127 37.089ZM142.617 53.702C143.392 53.702 144.167 53.5804 144.942 53.337V55.7296C144.591 55.8828 144.136 56.009 143.577 56.1081C143.027 56.2163 142.455 56.2704 141.86 56.2704C138.85 56.2704 137.345 54.6843 137.345 51.5122V43.4557H135.304V42.0499L137.494 40.8874L138.575 37.7243H140.535V41.0496H144.793V43.4557H140.535V51.4581C140.535 52.2241 140.725 52.7918 141.103 53.1613C141.491 53.5218 141.995 53.702 142.617 53.702ZM161.204 48.4978C161.204 50.9399 160.577 52.8459 159.325 54.2157C158.072 55.5855 156.328 56.2704 154.093 56.2704C152.697 56.2704 151.462 55.9549 150.39 55.3241C149.317 54.6933 148.493 53.7876 147.916 52.6071C147.339 51.4266 147.051 50.0568 147.051 48.4978C147.051 46.0736 147.673 44.1812 148.916 42.8204C150.16 41.4596 151.913 40.7793 154.175 40.7793C156.337 40.7793 158.05 41.4777 159.311 42.8745C160.573 44.2623 161.204 46.1367 161.204 48.4978ZM150.322 48.4978C150.322 51.9492 151.597 53.675 154.147 53.675C156.671 53.675 157.932 51.9492 157.932 48.4978C157.932 45.0823 156.662 43.3746 154.12 43.3746C152.787 43.3746 151.818 43.8162 151.214 44.6993C150.619 45.5825 150.322 46.8486 150.322 48.4978ZM172.45 40.7793C173.09 40.7793 173.617 40.8243 174.032 40.9144L173.721 43.8748C173.27 43.7666 172.802 43.7126 172.315 43.7126C171.044 43.7126 170.013 44.1271 169.22 44.9562C168.436 45.7853 168.043 46.8622 168.043 48.1869V56H164.867V41.0496H167.354L167.773 43.6855H167.935C168.431 42.7934 169.075 42.086 169.868 41.5633C170.67 41.0406 171.531 40.7793 172.45 40.7793ZM179.993 56H176.816V41.0496H179.993V56ZM176.627 37.089C176.627 36.5212 176.78 36.0842 177.087 35.7778C177.402 35.4714 177.848 35.3182 178.425 35.3182C178.984 35.3182 179.416 35.4714 179.723 35.7778C180.038 36.0842 180.196 36.5212 180.196 37.089C180.196 37.6297 180.038 38.0577 179.723 38.3731C179.416 38.6795 178.984 38.8327 178.425 38.8327C177.848 38.8327 177.402 38.6795 177.087 38.3731C176.78 38.0577 176.627 37.6297 176.627 37.089ZM197.701 56H194.511V46.8081C194.511 45.6546 194.277 44.794 193.808 44.2262C193.348 43.6585 192.614 43.3746 191.605 43.3746C190.262 43.3746 189.28 43.7711 188.658 44.5642C188.036 45.3572 187.725 46.6864 187.725 48.5518V56H184.548V41.0496H187.036L187.482 43.0097H187.644C188.094 42.2977 188.734 41.748 189.563 41.3605C190.392 40.973 191.312 40.7793 192.321 40.7793C195.908 40.7793 197.701 42.6041 197.701 46.2539V56ZM214.747 41.0496V42.7934L212.192 43.2665C212.426 43.5819 212.62 43.9694 212.773 44.429C212.926 44.8886 213.003 45.3752 213.003 45.8889C213.003 47.4299 212.471 48.642 211.408 49.5251C210.344 50.4083 208.88 50.8498 207.015 50.8498C206.537 50.8498 206.104 50.8138 205.717 50.7417C205.032 51.1652 204.69 51.6609 204.69 52.2286C204.69 52.5711 204.847 52.8279 205.163 52.9991C205.487 53.1703 206.077 53.2559 206.933 53.2559H209.542C211.191 53.2559 212.444 53.6074 213.3 54.3103C214.156 55.0132 214.584 56.027 214.584 57.3518C214.584 59.0459 213.886 60.3526 212.489 61.2718C211.092 62.191 209.074 62.6506 206.433 62.6506C204.397 62.6506 202.842 62.2902 201.77 61.5692C200.697 60.8483 200.161 59.821 200.161 58.4872C200.161 57.568 200.45 56.793 201.026 56.1622C201.612 55.5404 202.428 55.1078 203.473 54.8645C203.049 54.6843 202.698 54.3959 202.419 53.9994C202.148 53.5939 202.013 53.1703 202.013 52.7288C202.013 52.17 202.171 51.6969 202.486 51.3094C202.802 50.9219 203.27 50.5389 203.892 50.1604C203.117 49.827 202.486 49.2863 202 48.5383C201.522 47.7813 201.283 46.8982 201.283 45.8889C201.283 44.2668 201.792 43.0097 202.811 42.1175C203.838 41.2253 205.298 40.7793 207.19 40.7793C207.614 40.7793 208.055 40.8108 208.515 40.8739C208.984 40.928 209.335 40.9865 209.569 41.0496H214.747ZM203 58.325C203 59.0099 203.306 59.5371 203.919 59.9066C204.541 60.276 205.41 60.4608 206.528 60.4608C208.258 60.4608 209.547 60.213 210.394 59.7173C211.241 59.2217 211.665 58.5638 211.665 57.7438C211.665 57.0949 211.43 56.6308 210.962 56.3515C210.502 56.0811 209.641 55.9459 208.38 55.9459H205.974C205.063 55.9459 204.338 56.1577 203.797 56.5813C203.266 57.0138 203 57.5951 203 58.325ZM204.365 45.8889C204.365 46.8261 204.604 47.547 205.082 48.0517C205.568 48.5563 206.262 48.8087 207.163 48.8087C209.002 48.8087 209.921 47.8264 209.921 45.8619C209.921 44.8886 209.691 44.1406 209.231 43.6179C208.781 43.0863 208.091 42.8204 207.163 42.8204C206.244 42.8204 205.546 43.0818 205.068 43.6044C204.599 44.1271 204.365 44.8886 204.365 45.8889Z" fill="black"/>
</svg>
